<?xml version="1.0" standalone="no"?>
<!DOCTYPE svg PUBLIC "-//W3C//DTD SVG 20010904//EN"
 "http://www.w3.org/TR/2001/REC-SVG-20010904/DTD/svg10.dtd">
<svg version="1.0" xmlns="http://www.w3.org/2000/svg"
 width="1016.000000pt" height="1016.000000pt" viewBox="0 0 1016.000000 1016.000000"
 preserveAspectRatio="xMidYMid meet">
<metadata>
Created by potrace 1.11, written by Peter Selinger 2001-2013
</metadata>
<g transform="translate(0.000000,1016.000000) scale(0.100000,-0.100000)"
fill="#000000" stroke="none">
<path d="M8629 9254 c-189 -190 -400 -401 -468 -470 -68 -68 -128 -124 -134
-124 -6 0 -8 -3 -5 -6 4 -3 -34 -45 -83 -93 -49 -49 -89 -93 -89 -98 0 -6 226
-238 503 -516 276 -279 526 -530 555 -560 l52 -53 -554 -557 -554 -558 -318
321 c-176 176 -425 427 -555 558 l-237 237 -2238 0 -2239 -1 -590 593 c-325
326 -590 593 -590 593 0 0 -239 241 -532 535 -292 294 -533 535 -536 535 -4 0
-7 -793 -8 -2255 0 -5 1 -510 1 -1122 1 -612 -1 -1117 -5 -1122 -3 -6 155
-172 352 -371 197 -198 359 -360 358 -360 0 0 334 -336 743 -747 2013 -2025
2484 -2499 2492 -2513 5 -8 10 -10 10 -5 0 6 4 4 9 -3 4 -7 123 -130 265 -272
l257 -260 435 437 c240 241 467 471 506 511 38 39 74 72 78 72 5 0 10 4 12 10
3 9 754 767 2344 2365 383 385 704 711 715 724 10 13 19 22 19 19 0 -3 48 45
108 106 59 61 113 114 119 119 7 4 30 27 52 50 22 23 295 299 606 612 311 314
578 582 592 597 l26 27 -324 326 c-178 179 -429 431 -556 559 -128 128 -233
236 -233 240 0 4 108 116 241 249 132 133 265 268 295 300 31 31 59 57 64 57
5 0 10 4 12 10 2 5 115 122 252 260 l249 251 -49 50 c-27 27 -281 284 -565
569 l-516 520 -344 -346z"/>
</g>
</svg>
