<svg width="127" height="113" viewBox="0 0 127 113" fill="none" xmlns="http://www.w3.org/2000/svg">
<path fill-rule="evenodd" clip-rule="evenodd" d="M42.0044 70.5892L56.148 56.357L70.2916 70.5892L56.148 84.8215L42.0044 70.5892Z" fill="#0002C7"/>
<path fill-rule="evenodd" clip-rule="evenodd" d="M56.0058 84.6785L70.1495 70.4462L84.2931 84.6785L70.1495 98.9108L56.0058 84.6785Z" fill="#0002C7"/>
<path fill-rule="evenodd" clip-rule="evenodd" d="M42.0044 98.7677L56.148 84.5354L70.2916 98.7677L56.148 113L42.0044 98.7677Z" fill="#0002C7"/>
<path fill-rule="evenodd" clip-rule="evenodd" d="M28.0029 84.6785L42.1465 70.4462L56.2901 84.6785L42.1465 98.9108L28.0029 84.6785Z" fill="#003BD7"/>
<path fill-rule="evenodd" clip-rule="evenodd" d="M70.0073 70.5892L84.1509 56.357L98.2946 70.5892L84.1509 84.8215L70.0073 70.5892Z" fill="#30ADED"/>
<path fill-rule="evenodd" clip-rule="evenodd" d="M56.0058 56.5L70.1495 42.2677L84.2931 56.5L70.1495 70.7323L56.0058 56.5Z" fill="#30ADED"/>
<path fill-rule="evenodd" clip-rule="evenodd" d="M70.0073 42.4108L84.1509 28.1785L98.2945 42.4108L84.1509 56.643L70.0073 42.4108Z" fill="#30ADED"/>
<path fill-rule="evenodd" clip-rule="evenodd" d="M98.0102 42.4108L112.154 28.1785L126.297 42.4108L112.154 56.643L98.0102 42.4108Z" fill="#86EAFA"/>
<path fill-rule="evenodd" clip-rule="evenodd" d="M98.0102 14.2323L112.154 4.5487e-06L126.297 14.2323L112.154 28.4646L98.0102 14.2323Z" fill="#B7F5FF"/>
<path fill-rule="evenodd" clip-rule="evenodd" d="M84.0088 56.5L98.1524 42.2677L112.296 56.5L98.1524 70.7323L84.0088 56.5Z" fill="#30ADED"/>
<path fill-rule="evenodd" clip-rule="evenodd" d="M14.0015 70.5892L28.1451 56.357L42.2887 70.5892L28.1451 84.8215L14.0015 70.5892Z" fill="#003BD7"/>
<path fill-rule="evenodd" clip-rule="evenodd" d="M28.0029 56.5L42.1465 42.2677L56.2901 56.5L42.1465 70.7323L28.0029 56.5Z" fill="#0002C7"/>
<path fill-rule="evenodd" clip-rule="evenodd" d="M42.0044 42.4108L56.148 28.1785L70.2916 42.4108L56.148 56.643L42.0044 42.4108Z" fill="#137AE4"/>
<path fill-rule="evenodd" clip-rule="evenodd" d="M28.0029 28.3215L56.2901 28.3215L42.1465 42.5538L28.0029 28.3215Z" fill="#003BD7"/>
<path fill-rule="evenodd" clip-rule="evenodd" d="M56.0058 28.3215L84.2931 28.3215L70.1495 42.5538L56.0058 28.3215Z" fill="#137AE4"/>
<path fill-rule="evenodd" clip-rule="evenodd" d="M0 56.5L14.1429 42.267L28.2857 56.5L14.1429 70.733L0 56.5Z" fill="#003BD7"/>
<path fill-rule="evenodd" clip-rule="evenodd" d="M14.0015 42.4108L28.1451 28.1785L42.2887 42.4108L28.1451 56.643L14.0015 42.4108Z" fill="#003BD7"/>
<path fill-rule="evenodd" clip-rule="evenodd" d="M0 28.3215L14.1429 14.0885L28.2857 28.3215L14.1429 42.5545L0 28.3215Z" fill="#003BD7"/>
<path fill-rule="evenodd" clip-rule="evenodd" d="M0.142136 0L14.2857 14.2323L0.142136 28.4646V0Z" fill="#003BD7"/>
<path fill-rule="evenodd" clip-rule="evenodd" d="M0.142136 28.1785L14.2857 42.4108L0.142136 56.643V28.1785Z" fill="#003BD7"/>
</svg>
