<svg width="528" height="113" viewBox="0 0 528 113" fill="none" xmlns="http://www.w3.org/2000/svg">
<path fill-rule="evenodd" clip-rule="evenodd" d="M42.0044 70.5892L56.148 56.357L70.2916 70.5892L56.148 84.8215L42.0044 70.5892Z" fill="#0002C7"/>
<path fill-rule="evenodd" clip-rule="evenodd" d="M56.0058 84.6785L70.1495 70.4462L84.2931 84.6785L70.1495 98.9108L56.0058 84.6785Z" fill="#0002C7"/>
<path fill-rule="evenodd" clip-rule="evenodd" d="M42.0044 98.7677L56.148 84.5354L70.2916 98.7677L56.148 113L42.0044 98.7677Z" fill="#0002C7"/>
<path fill-rule="evenodd" clip-rule="evenodd" d="M28.0029 84.6785L42.1465 70.4462L56.2901 84.6785L42.1465 98.9108L28.0029 84.6785Z" fill="#003BD7"/>
<path fill-rule="evenodd" clip-rule="evenodd" d="M70.0073 70.5892L84.1509 56.357L98.2945 70.5892L84.1509 84.8215L70.0073 70.5892Z" fill="#30ADED"/>
<path fill-rule="evenodd" clip-rule="evenodd" d="M56.0058 56.5L70.1495 42.2677L84.2931 56.5L70.1495 70.7323L56.0058 56.5Z" fill="#30ADED"/>
<path fill-rule="evenodd" clip-rule="evenodd" d="M70.0073 42.4108L84.1509 28.1785L98.2945 42.4108L84.1509 56.643L70.0073 42.4108Z" fill="#30ADED"/>
<path fill-rule="evenodd" clip-rule="evenodd" d="M98.0102 42.4108L112.154 28.1785L126.297 42.4108L112.154 56.643L98.0102 42.4108Z" fill="#86EAFA"/>
<path fill-rule="evenodd" clip-rule="evenodd" d="M98.0102 14.2323L112.154 4.21047e-06L126.297 14.2323L112.154 28.4646L98.0102 14.2323Z" fill="#86EAFA"/>
<path fill-rule="evenodd" clip-rule="evenodd" d="M84.0088 56.5L98.1524 42.2677L112.296 56.5L98.1524 70.7323L84.0088 56.5Z" fill="#30ADED"/>
<path fill-rule="evenodd" clip-rule="evenodd" d="M14.0015 70.5892L28.1451 56.357L42.2887 70.5892L28.1451 84.8215L14.0015 70.5892Z" fill="#003BD7"/>
<path fill-rule="evenodd" clip-rule="evenodd" d="M28.0029 56.5L42.1465 42.2677L56.2901 56.5L42.1465 70.7323L28.0029 56.5Z" fill="#0002C7"/>
<path fill-rule="evenodd" clip-rule="evenodd" d="M42.0044 42.4108L56.148 28.1785L70.2916 42.4108L56.148 56.643L42.0044 42.4108Z" fill="#137AE4"/>
<path fill-rule="evenodd" clip-rule="evenodd" d="M28.0029 28.3215L56.2901 28.3215L42.1465 42.5538L28.0029 28.3215Z" fill="#003BD7"/>
<path fill-rule="evenodd" clip-rule="evenodd" d="M56.0058 28.3215L84.2931 28.3215L70.1495 42.5538L56.0058 28.3215Z" fill="#137AE4"/>
<path fill-rule="evenodd" clip-rule="evenodd" d="M0 56.5L14.1429 42.267L28.2857 56.5L14.1429 70.733L0 56.5Z" fill="#003BD7"/>
<path fill-rule="evenodd" clip-rule="evenodd" d="M14.0015 42.4108L28.1451 28.1785L42.2887 42.4108L28.1451 56.643L14.0015 42.4108Z" fill="#003BD7"/>
<path fill-rule="evenodd" clip-rule="evenodd" d="M0 28.3215L14.1429 14.0885L28.2857 28.3215L14.1429 42.5545L0 28.3215Z" fill="#003BD7"/>
<path fill-rule="evenodd" clip-rule="evenodd" d="M0.142136 0L14.2857 14.2323L0.142136 28.4646V0Z" fill="#003BD7"/>
<path fill-rule="evenodd" clip-rule="evenodd" d="M0.142136 28.1785L14.2857 42.4108L0.142136 56.643V28.1785Z" fill="#003BD7"/>
<path d="M235.985 28.3798C236.209 28.9058 236.395 29.582 236.545 30.4086C236.769 31.16 236.881 31.8363 236.881 32.4375V93.9793C236.881 94.5804 236.657 95.0688 236.209 95.4445C235.835 95.8203 235.35 96.0081 234.753 96.0081H219.183C218.586 96.0081 218.1 95.8203 217.727 95.4445C217.353 95.0688 217.167 94.5804 217.167 93.9793V73.6908C217.167 73.0896 216.943 72.6012 216.495 72.2255C216.121 71.8498 215.636 71.6619 215.038 71.6619H192.86C192.263 71.6619 191.74 71.8498 191.292 72.2255C190.919 72.6012 190.732 73.0896 190.732 73.6908V93.9793C190.732 94.5804 190.545 95.0688 190.172 95.4445C189.798 95.8203 189.313 96.0081 188.716 96.0081H173.146C172.549 96.0081 172.026 95.8203 171.578 95.4445C171.205 95.0688 171.018 94.5804 171.018 93.9793V32.0993C171.093 31.4982 171.205 30.8595 171.354 30.1832C171.503 29.5069 171.69 28.9058 171.914 28.3798L182.219 18.0101C182.742 17.7847 183.376 17.5968 184.123 17.4465C184.87 17.2211 185.542 17.1084 186.139 17.1084H221.647C222.245 17.1084 222.917 17.2211 223.663 17.4465C224.485 17.5968 225.157 17.7847 225.68 18.0101L235.985 28.3798ZM217.167 34.8045H190.732V54.7548H217.167V34.8045Z" fill="black"/>
<path d="M319.428 28.4925C319.652 29.0185 319.838 29.6572 319.988 30.4086C320.212 31.16 320.324 31.8363 320.324 32.4375V93.9793C320.324 94.5804 320.1 95.1064 319.652 95.5573C319.278 95.933 318.793 96.1208 318.196 96.1208H302.626C302.029 96.1208 301.506 95.933 301.058 95.5573C300.684 95.1064 300.498 94.5804 300.498 93.9793V38.4113C300.498 37.8102 300.311 37.3217 299.938 36.946C299.564 36.5703 299.079 36.3824 298.481 36.3824H276.303C275.706 36.3824 275.183 36.5703 274.735 36.946C274.362 37.3217 274.175 37.8102 274.175 38.4113V93.9793C274.175 95.407 273.466 96.1208 272.047 96.1208H256.589C255.17 96.1208 254.461 95.407 254.461 93.9793V19.3626C254.461 18.7615 254.648 18.2731 255.021 17.8974C255.469 17.4465 255.992 17.2211 256.589 17.2211H305.09C305.688 17.2211 306.36 17.3338 307.106 17.5592C307.928 17.7095 308.6 17.8974 309.123 18.1228L319.428 28.4925Z" fill="black"/>
<path d="M357.615 93.9793C357.615 95.407 356.906 96.1208 355.487 96.1208H340.029C338.611 96.1208 337.901 95.407 337.901 93.9793V19.3626C337.901 17.9349 338.611 17.2211 340.029 17.2211H355.487C356.906 17.2211 357.615 17.9349 357.615 19.3626V93.9793Z" fill="black"/>
<path d="M456.952 28.4925C457.176 29.0185 457.362 29.6572 457.512 30.4086C457.736 31.16 457.848 31.8363 457.848 32.4375V93.9793C457.848 94.5804 457.624 95.1064 457.176 95.5573C456.802 95.933 456.317 96.1208 455.72 96.1208H440.15C439.553 96.1208 439.067 95.933 438.694 95.5573C438.32 95.1064 438.134 94.5804 438.134 93.9793V36.3824H425.588V93.9793C425.588 94.5804 425.402 95.1064 425.028 95.5573C424.655 95.933 424.17 96.1208 423.572 96.1208H409.459C408.861 96.1208 408.339 95.933 407.891 95.5573C407.517 95.1064 407.331 94.5804 407.331 93.9793V36.3824H394.785V93.9793C394.785 95.407 394.076 96.1208 392.657 96.1208H377.199C375.781 96.1208 375.071 95.407 375.071 93.9793V19.3626C375.071 18.7615 375.258 18.2731 375.631 17.8974C376.079 17.4465 376.602 17.2211 377.199 17.2211H442.614C443.212 17.2211 443.884 17.3338 444.63 17.5592C445.452 17.7095 446.124 17.8974 446.647 18.1228L456.952 28.4925Z" fill="black"/>
<path d="M525.984 76.9595C526.581 76.9595 527.067 77.1849 527.44 77.6357C527.813 78.0115 528 78.4999 528 79.101V93.9793C528 94.5804 527.813 95.1064 527.44 95.5573C527.067 95.933 526.581 96.1208 525.984 96.1208H477.595C476.176 96.1208 475.466 95.407 475.466 93.9793V19.3626C475.466 17.9349 476.176 17.2211 477.595 17.2211H493.052C494.471 17.2211 495.181 17.9349 495.181 19.3626V74.9306C495.181 75.5317 495.367 76.0202 495.741 76.3959C496.189 76.7716 496.711 76.9595 497.309 76.9595H525.984Z" fill="black"/>
</svg>
