<?xml version="1.0" encoding="utf-8"?>
<!-- Generator: Adobe Illustrator 19.2.1, SVG Export Plug-In . SVG Version: 6.00 Build 0)  -->
<!DOCTYPE svg PUBLIC "-//W3C//DTD SVG 1.1//EN" "http://www.w3.org/Graphics/SVG/1.1/DTD/svg11.dtd">
<svg version="1.1" id="Layer_1" xmlns="http://www.w3.org/2000/svg" xmlns:xlink="http://www.w3.org/1999/xlink" x="0px" y="0px"
	 viewBox="0 0 330.5 123.5" style="enable-background:new 0 0 330.5 123.5;" xml:space="preserve">
<style type="text/css">
	.st0{fill:#FFFFFF;}
</style>
<path class="st0" d="M287,17.9c-0.3,1.5-0.4,5.3,1.8,4.8c2.9-0.6,2.5-0.9,4.1-2.3c1.1-0.9,3.7,1.6,0,5.7c-2,2.2-2.4,2.9-1.4,4.2
	c1.1,1.3,4,1.8,4,6c0,3.6,4.6,1,5.8-0.4c1.1-1.4,1.9-7.7,5-3.1c2.2,3.3-1.6,10.2,3,10.9c3.7,0.6,4.4,4.8,4.5,5.9c0,0.2,0,0.3,0,0.3
	c9.6-9.2,3.2-21.1,3-22.6c-0.4-2.6,1-1.6,2.7-0.1c-7.1-13.3-21-22.3-37.1-22.3c-2.8,0-5.5,0.3-8.1,0.8C282.7,5.9,288.5,9.2,287,17.9
	z"/>
<path class="st0" d="M309,68.5c-2.6,1-3.7-0.6-5.6,1.2c-2.1,2.1,4.6,6.1-7.8,3.3c-5.5-1.3-4.8,4.7-11,1.6c-1.7-4.1-1.8-6.5-0.3-9.1
	c1.7-3,2.3-2,1.3-5.3c-0.4-1.3,0-1.9,0.7-3.7c0.7-1.8-0.2-4.3-2.7-4.1c-3.4,0.2-3,1.7-5,3.1c-1.4,0.9-3.7-3.8,1.2-8.1
	c2.7-2.3,3.3-3.1,2.4-4.9c-0.9-1.9-2.6-1.2-3.3-3.3c-0.5-1.6,0.3-4.7-2.1-5.5c-2.7-0.8-4.8,3-6.4,4.5c-1.8,1.7-3.8,4.9-4.7,2.4
	c-1.7-4.4,6.2-11,1.3-12.8c-4.6-1.7-6.1-6.5-6.1-6.5c-12.6,9.3-6.6,17.6-7.7,19c-1.1,1.5-3.1-1.8-4.8-0.2c-1.3,1.2-2.5,8.8,5.6,13.7
	c3.1,1.8,4.1,2.3,3.3,3.4c-0.6,0.9-3,0.1-3,2.2c0.1,4,6.6,2.8,7.8,7.9c1.1,4.7,21.3,7.6,21.3,7.6c0,0,0.1,0,0.3,0.1l1,0.5
	c0.3,1.2,1.5,4.1,4.3,5.6c4.6,2.4-0.3,1.2,0.3,2.9c0.3,0.9,3.6,3.1,9.5,1.7c8.1-3.4,14.9-9.2,19.5-16.6
	C313.2,65.3,312.8,66.1,309,68.5z"/>
<g>
	<path d="M283.6,75c-0.2,0-0.3-0.1-0.3-0.1c0,0-20.1-2.8-21.3-7.6c-1.2-5.1-7.7-3.9-7.8-7.9c0-2,2.4-1.3,3-2.2
		c0.7-1.1-0.3-1.6-3.3-3.4c-8.1-4.8-6.9-12.5-5.6-13.7c1.7-1.5,3.7,1.7,4.8,0.2c1.1-1.5-4.9-9.7,7.7-19c0,0,1.5,4.8,6.1,6.5
		c4.9,1.8-3,8.4-1.3,12.8c1,2.5,2.9-0.6,4.7-2.4c1.5-1.5,3.7-5.3,6.4-4.5c2.4,0.7,1.5,3.8,2.1,5.5c0.7,2.1,2.4,1.5,3.3,3.3
		c0.9,1.8,0.3,2.5-2.4,4.9c-4.9,4.3-2.6,9-1.2,8.1c2.1-1.4,1.7-2.9,5-3.1c2.5-0.1,3.4,2.3,2.7,4.1c-0.7,1.8-1.1,2.4-0.7,3.7
		c1,3.3,0.4,2.3-1.3,5.3c-1.5,2.6-1.4,5,0.3,9.1c6.2,3.2,5.5-2.9,11-1.6c12.4,2.8,5.7-1.2,7.8-3.3c1.9-1.9,3-0.2,5.6-1.2
		c3.8-2.4,4.2-3.2,9.2,0.7c4-6.5,6.4-14.1,6.4-22.3c0-7.1-1.8-13.8-4.9-19.7c-1.8-1.6-3.2-2.6-2.8,0c0.2,1.4,6.6,13.4-3,22.6
		c0,0,0-0.1,0-0.3c-0.1-1.1-0.8-5.4-4.5-5.9c-4.6-0.7-0.8-7.7-3-10.9c-3.1-4.6-3.9,1.7-5,3.1c-1.1,1.4-5.8,4-5.8,0.4
		c0-4.1-2.9-4.6-4-6c-1.1-1.3-0.6-2,1.4-4.2c3.6-4.1,1-6.6,0-5.7c-1.6,1.4-1.2,1.7-4.1,2.3c-2.2,0.5-2.1-3.3-1.8-4.8
		c1.5-8.7-4.3-12-12.6-12.2c-19.3,3.8-33.9,20.8-33.9,41.2c0,23.2,18.8,42,42,42c5.7,0,11.2-1.2,16.2-3.2c-5.9,1.4-9.2-0.9-9.5-1.7
		c-0.6-1.7,4.3-0.5-0.3-2.9c-2.8-1.4-4-4.3-4.3-5.6L283.6,75z"/>
</g>
<path d="M286,76.3c0,0-27.6-10.7-28.6-37.9C257.4,38.4,260.1,59.1,286,76.3z"/>
<path d="M285.8,5c0.8,0.1,6.7,0.9,13,4.9c2.3,2.2,5.6,7.6,0.5,18.6c0,0,6.5-8.8,4.9-14.2c5.5,5.5,10.1,14.2,10.3,28.1
	C314.5,42.3,320.6,7.7,285.8,5z"/>
<path d="M313.4,73.7c-2.1,1.3-5.5,4.3-11.1,2.5c0,0,2.2,1.7,5.7,1.6c-4.5,2.3-9.4,2.9-17.1,0.9c0,0,15.6,9.2,26.5-8.4
	C317.4,70.4,314.7,72.9,313.4,73.7z"/>
<g>
	<path d="M19.1,36.6c0,3,0.6,3.9,2.7,3.9v0.8h-8.9v-0.8c1.8,0,2.9-0.5,2.9-4V17.2h-3.7c-3.4,0-4.9,1-5.1,3.6H6.2v-5.8H7
		c0.4,0.3,0.8,0.5,1.4,0.7c0.6,0.1,1.4,0.2,2.4,0.2H24c2.2,0,3.2-0.3,4-0.9h0.8v5.8h-0.5c-0.5-2.1-1.3-3.6-5.3-3.6h-3.8V36.6z"/>
	<path d="M46.3,37.5c0,2.4,0.4,3,2.5,3v0.8h-8.1v-0.8c2.1,0,2.6-0.5,2.6-2.5v-7.7c0-2.1-1.2-3.4-3.1-3.4c-1.8,0-3,0.8-4.5,2.9v8.5
		c0,1.6,0.7,2.1,2.6,2.1v0.8h-8.4v-0.8c2.3,0,2.8-0.5,2.8-3V17.2c0-2-0.6-2.3-2.8-2.3v-0.7l5-0.5h0.7v14.7c2-2.3,3.4-3.1,5.4-3.1
		c2.6,0,5.2,1.7,5.2,5.4V37.5z"/>
	<path d="M53.6,31.7c-0.1,7,4.1,8.7,6.2,8.7c2.2,0,3.3-0.7,5.5-3.3v1.1c-1.9,2.4-3.7,3.3-6.4,3.3c-4.9,0-8.4-3.4-8.4-8.1
		c0-4.7,3.4-8.4,7.8-8.4c3.6,0,6.9,2.9,6.7,6.5H53.6z M62.1,30.9c0.1-3.4-2.2-4.8-4.2-4.8c-2.6,0-4.1,1.9-4.3,4.8H62.1z"/>
	<path d="M105.4,50.6h-1.2L76.1,15.9H76v28c0,4,1.6,5.5,5.2,5.5v1.2H69.1v-1.2c3.3,0,4.9-1,4.9-6.8V19.3c0-4.5-1.2-7-5.9-7.4v-1.2
		h10.2l25,31.1h0.1V18.4c0-5.2-1.4-6.6-4.9-6.6v-1.2h12.1v1.2c-3.9,0-5.2,1.6-5.2,6.3V50.6z"/>
	<path d="M142.3,25.9h8.6v1.8h-8.6v15.9c0,3.4,1.7,5.2,4.5,5.2c1.8,0,3.1-0.7,4.6-2.4l0.8,0.9c-2.2,2.7-4.7,4.1-7.5,4.1
		c-4.2,0-7.1-2.9-7.1-7.2V27.7h-4.7v-1.2c3.3-1.7,6.1-4.7,8.2-8.9h1.2V25.9z"/>
	<path d="M179,46c0,2.7,0.9,3.5,4.2,3.5v1.2l-9,0.5v-4.5h-0.1c-2.4,3.2-5.3,4.8-8.6,4.8c-4.9,0-8.1-3.7-8.1-8.3V30.5
		c0-2.4-0.8-3.3-4.4-3.3V26l7.9-0.8h1.2v17.6c0,3.5,2.2,5.6,5.6,5.6c2.4,0,4.5-1.3,6.6-4V31.1c0-3.4-0.6-3.8-4.8-3.9V26l8.4-0.8h1.2
		V46z"/>
	<path d="M194.3,46c0,2.7,0.8,3.5,4.1,3.5v1.2h-13v-1.2c3.8,0,4.2-1,4.2-4.7V31.3c0-3.6-0.9-4-5.1-4V26l8.6-0.8h1.2v5.4
		c4.6-4,6.8-5.4,8.4-5.4c1.4,0,3.3,0.8,4.5,2l-1.9,4.4c-2-1.1-4.2-2.2-5.9-2.2c-1.6,0-3,0.8-5.2,3V46z"/>
	<path d="M212.6,35.6c-0.1,11.1,6.5,13.9,9.8,13.9c3.4,0,5.2-1.2,8.7-5.2v1.8c-3,3.8-5.9,5.3-10.2,5.3c-7.7,0-13.3-5.4-13.3-12.8
		c0-7.5,5.4-13.3,12.4-13.3c5.7,0,11,4.6,10.7,10.3H212.6z M226,34.4c0.2-5.4-3.5-7.7-6.6-7.7c-4.1,0-6.6,3.1-6.8,7.7H226z"/>
	<path d="M31.1,60.4c-1.5-5.6-4.5-8.1-9.7-8.1c-7.2,0-11.1,5.8-11.1,13.5c0,9,4.6,14.9,11.4,14.9c4.7,0,8.2-2.2,10.4-6.6l0.8,0.7
		c-2,4.7-6.7,7.7-12.5,7.7c-7.2,0-14.7-4.9-14.7-14.9c0-9.5,6.5-16.5,15.4-16.5c3.8,0,6.6,1.3,8.3,1.3c0.8,0,1.3-0.3,1.6-0.9H32v8.9
		H31.1z"/>
	<path d="M44.9,82.4c-5.8,0-10.1-4.2-10.1-9.8c0-5.6,4.3-9.8,10.1-9.8S55,67,55,72.6C55,78.2,50.7,82.4,44.9,82.4z M44.9,63.9
		c-3.9,0-6.3,3.4-6.3,8.8c0,4.8,2,8.7,6.3,8.7c4.4,0,6.3-4.2,6.3-8.7C51.1,68,49.2,63.9,44.9,63.9z"/>
	<path d="M76.4,77.8c0,2.4,0.5,3.1,3.1,3.1v0.9h-9.9v-0.9c2.5,0,3.2-0.6,3.2-2.3V69c0-3-2.1-4.2-4.1-4.2c-1.8,0-3.4,1.1-5.3,3.6v9
		c0,2.8,0.4,3.5,3.1,3.5v0.9h-9.8v-0.9c2.5,0,3.1-0.2,3.1-3.5V67c0-2.2-0.6-2.7-3.1-2.7v-0.9l5.7-0.6h0.9v3.7
		c2.2-2.5,4.3-3.7,6.7-3.7c3.1,0,6.3,2.2,6.3,6.6V77.8z"/>
	<path d="M91.7,68.5c-0.4-3.1-2.4-4.6-4.6-4.6c-1.8,0-3.1,1-3.1,2.5c0,4.7,9.7,3.4,9.7,10.3c0,3.1-2.7,5.7-5.8,5.7
		c-2,0-3.8-1.4-4.7-1.4c-0.7,0-1.2,0.6-1.2,1.3h-0.9V76H82c0.8,3.9,3.7,5.4,6,5.4c1.8,0,3.2-1.4,3.2-3.2c0-5.2-9.8-3.8-9.8-10
		c0-2.9,2.6-5.3,5.6-5.3c1.9,0,2.5,0.9,3.8,0.9c0.5,0,0.8-0.3,1.1-0.9h0.9v5.7H91.7z"/>
	<path d="M99.4,70.6c-0.1,8.3,4.9,10.4,7.4,10.4c2.6,0,3.9-0.9,6.5-3.9v1.4c-2.2,2.9-4.4,4-7.6,4c-5.8,0-10-4-10-9.6
		c0-5.6,4.1-10,9.3-10c4.3,0,8.2,3.4,8,7.7H99.4z M109.5,69.7c0.2-4.1-2.6-5.7-5-5.7c-3.1,0-4.9,2.3-5.1,5.7H109.5z"/>
	<path d="M122.2,78.3c0,2,0.6,2.6,3.1,2.6v0.9h-9.8v-0.9c2.8,0,3.1-0.7,3.1-3.5V67.3c0-2.7-0.7-3-3.8-3v-0.9l6.5-0.6h0.9v4
		c3.4-3,5.1-4,6.3-4c1,0,2.5,0.6,3.4,1.5l-1.4,3.3c-1.5-0.8-3.1-1.6-4.4-1.6c-1.2,0-2.2,0.6-3.9,2.2V78.3z"/>
	<path d="M144.2,77.3l3.6-9.3c0.9-2.4,0.9-3.5-1.8-3.7v-0.9h6.8v0.9c-2.1,0.2-2.7,0.7-3.6,2.7l-6,15.3h-0.9l-5.9-14.5
		c-1.3-3-1.7-3.3-3.9-3.4v-0.9h8.9v0.9c-1.8,0.2-2.2,1.1-1.4,3.2L144.2,77.3z"/>
	<path d="M189.6,77.8c0,2.4,0.5,3.1,3.1,3.1v0.9h-9.9v-0.9c2.5,0,3.2-0.6,3.2-2.3V69c0-3-2.1-4.2-4.1-4.2c-1.8,0-3.4,1.1-5.3,3.6v9
		c0,2.8,0.4,3.5,3.1,3.5v0.9H170v-0.9c2.5,0,3.1-0.2,3.1-3.5V67c0-2.2-0.6-2.7-3.1-2.7v-0.9l5.7-0.6h0.9v3.7
		c2.2-2.5,4.3-3.7,6.7-3.7c3.1,0,6.3,2.2,6.3,6.6V77.8z"/>
	<path d="M210.1,69.4h-0.9c-0.8-3.3-3.1-5.5-6.2-5.5c-3.7,0-6.2,3.1-6.2,7.7c0,5.1,3.2,9.3,6.9,9.3c2.2,0,5-1.2,6.9-3.9v1.4
		c-2,2.7-4.8,4.1-8.1,4.1c-5.5,0-9.3-3.8-9.3-9.3c0-5.7,4.3-10.2,9.5-10.2c2.8,0,4.3,1,5.2,1c0.5,0,0.9-0.4,1.3-1h0.9V69.4z"/>
	<path d="M223.4,77.6l3.2-9.8c0.7-2.2,0.6-3.4-1.5-3.5v-0.9h6.5v0.9c-2,0-3.2,1.3-4.2,4.3l-7.4,21.8c-1.5,4.3-3.9,6.7-6.1,6.7
		c-0.8,0-1.4-0.2-2.3-0.8l1.2-3.2c0.7,0.3,1.1,0.4,1.8,0.4c2.2,0,3.6-1.3,4.7-4.5l2.4-6.7l-6.6-15.3c-0.9-2.1-1.6-2.7-3.8-2.8v-0.9
		h8.9v0.9c-1.4,0.2-2,1.3-1.3,2.8L223.4,77.6z"/>
	<path d="M129.5,45.3l0-10.9c0-6.7-4.8-9.1-8.9-9.1c-4.5,0-8.1,3-9.1,7.6l1.3,0.3c1-3.6,3.8-5.3,6.6-5.3c3.5,0,5.5,2.5,5.5,6v1.8
		c-4,2.4-13.7,2.1-13.7,9.1c0,3.6,3.2,6.5,7,6.5c2.6,0,4.5-1,6.9-3.7l0,0v3h8.7v-1.2C130.2,49.5,129.5,48.5,129.5,45.3z M124.8,45.6
		c-1,2.1-3.6,3.1-5.1,3.1c-2,0-3.8-2-3.8-4.5c0-5,4.2-4.9,8.9-7V45.6z"/>
	<path d="M166.2,77.8l0-8.1c0-5-3.6-6.7-6.6-6.7c-3.3,0-6,2.2-6.8,5.6l0.9,0.3c0.8-2.6,2.8-3.9,4.9-3.9c2.6,0,4.1,1.9,4.1,4.4v1.3
		c-3,1.8-10.1,1.6-10.1,6.8c0,2.7,2.4,4.9,5.2,4.9c1.9,0,3.3-0.8,5.1-2.7l0,0v2.2h6.4v-0.9C166.7,80.9,166.2,80.2,166.2,77.8z
		 M162.7,78.1c-0.7,1.5-2.7,2.3-3.8,2.3c-1.5,0-2.8-1.5-2.8-3.4c0-3.7,3.1-3.7,6.6-5.2V78.1z"/>
</g>
</svg>
